<?xml version="1.0" encoding="iso-8859-1"?>
<!-- Generator: Adobe Illustrator 19.0.0, SVG Export Plug-In . SVG Version: 6.00 Build 0)  -->
<svg version="1.1" id="Layer_1" xmlns="http://www.w3.org/2000/svg" xmlns:xlink="http://www.w3.org/1999/xlink" x="0px" y="0px"
	 viewBox="0 0 512 512" style="enable-background:new 0 0 512 512;" xml:space="preserve">
<ellipse style="fill:#FD7555;" cx="252.143" cy="257.149" rx="227.393" ry="210.548"/>
<g>
	<path style="fill:#EF431D;" d="M479.537,257.145c0,116.281-101.803,210.547-227.385,210.547c-6.098,0-12.136-0.223-18.114-0.669
		c117.112-8.54,209.271-99.241,209.271-209.879S351.149,55.806,234.037,47.266c5.977-0.446,12.015-0.669,18.114-0.669
		C377.732,46.598,479.537,140.865,479.537,257.145z"/>
	<ellipse style="fill:#EF431D;" cx="252.334" cy="299.317" rx="90.933" ry="72.972"/>
</g>
<path d="M227.893,321.104c-4.267,0-7.725-3.459-7.725-7.725v-28.123c0-4.266,3.459-7.725,7.725-7.725
	c4.267,0,7.725,3.458,7.725,7.725v28.123C235.618,317.645,232.16,321.104,227.893,321.104z"/>
<path d="M276.768,321.104c-4.267,0-7.725-3.459-7.725-7.725v-28.123c0-4.266,3.459-7.725,7.725-7.725
	c4.266,0,7.725,3.458,7.725,7.725v28.123C284.493,317.645,281.035,321.104,276.768,321.104z"/>
<circle cx="174.142" cy="203.506" r="13.954"/>
<circle cx="337.635" cy="203.506" r="13.954"/>
<path style="fill:#FD7555;" d="M144.904,44.585c-28.92-1.463-104.532,0.705-142.883,58.242c-2.604,3.907-2.7,8.991-0.241,12.99
	c8.447,13.743,32.649,45.636,84.918,66.503c0.689,0.276,1.384,0.548,2.083,0.82c58.514,22.707,66.536-89.23,67.599-126.12
	C156.569,50.443,151.478,44.918,144.904,44.585z"/>
<path style="fill:#EF431D;" d="M156.384,57.022c-1.063,36.887-9.089,148.832-67.604,126.12c-0.354-0.136-0.709-0.271-1.053-0.417
	c32.781-17.344,38.169-95.944,39.024-125.703c0.167-5.868-3.877-10.903-9.422-12.154c11.091-0.771,20.669-0.626,27.58-0.282
	C151.475,44.92,156.572,50.444,156.384,57.022z"/>
<path style="fill:#FD7555;" d="M367.091,44.585c28.92-1.463,104.532,0.705,142.883,58.242c2.604,3.907,2.7,8.991,0.241,12.99
	c-8.447,13.743-32.649,45.637-84.918,66.503c-0.689,0.276-1.384,0.548-2.083,0.82c-58.514,22.707-66.536-89.23-67.599-126.12
	C355.427,50.443,360.519,44.918,367.091,44.585z"/>
<path style="fill:#EF431D;" d="M510.219,115.818c-8.453,13.738-32.655,45.632-84.917,66.499c-0.688,0.282-1.386,0.552-2.085,0.824
	c-6.702,2.606-12.748,3.439-18.199,2.814c41.484-20.45,61.612-47.216,69.168-59.506c2.46-4.003,2.366-9.078-0.239-12.987
	c-30.008-45.018-82.832-56.139-118.25-58.151c0.647-5.806,5.399-10.423,11.392-10.726c28.924-1.459,104.534,0.709,142.89,58.245
	C512.584,106.729,512.678,111.816,510.219,115.818z"/>
<g>
</g>
<g>
</g>
<g>
</g>
<g>
</g>
<g>
</g>
<g>
</g>
<g>
</g>
<g>
</g>
<g>
</g>
<g>
</g>
<g>
</g>
<g>
</g>
<g>
</g>
<g>
</g>
<g>
</g>
</svg>
